<?xml version="1.0" encoding="UTF-8" standalone="no"?>
<!DOCTYPE svg PUBLIC "-//W3C//DTD SVG 1.1//EN"
 "http://www.w3.org/Graphics/SVG/1.1/DTD/svg11.dtd">
<!-- Generated by graphviz version 2.40.1 (20161225.0304)
 -->
<!-- Title: dependencies Pages: 1 -->
<svg width="504pt" height="284pt"
 viewBox="0.00 0.00 504.00 284.00" xmlns="http://www.w3.org/2000/svg" xmlns:xlink="http://www.w3.org/1999/xlink">
<g id="graph0" class="graph" transform="scale(1 1) rotate(0) translate(4 280)">
<title>dependencies</title>
<polygon fill="#ffffff" stroke="transparent" points="-4,4 -4,-280 500,-280 500,4 -4,4"/>
<text text-anchor="start" x="227.0091" y="-42.4" font-family="sans-serif" font-weight="bold" font-size="14.00" fill="#000000">Legend</text>
<polygon fill="#ffffb3" stroke="transparent" points="14,-10 14,-30 34,-30 34,-10 14,-10"/>
<text text-anchor="start" x="37.629" y="-15.4" font-family="sans-serif" font-size="14.00" fill="#000000"> &#160;Declarations</text>
<polygon fill="#8dd3c7" stroke="transparent" points="127,-10 127,-30 147,-30 147,-10 127,-10"/>
<text text-anchor="start" x="150.7251" y="-15.4" font-family="sans-serif" font-size="14.00" fill="#000000"> &#160;Module</text>
<polygon fill="#80b1d3" stroke="transparent" points="213,-10 213,-30 233,-30 233,-10 213,-10"/>
<text text-anchor="start" x="236.7812" y="-15.4" font-family="sans-serif" font-size="14.00" fill="#000000"> &#160;Bootstrap</text>
<polygon fill="#fdb462" stroke="transparent" points="310,-10 310,-30 330,-30 330,-10 310,-10"/>
<text text-anchor="start" x="333.6732" y="-15.4" font-family="sans-serif" font-size="14.00" fill="#000000"> &#160;Providers</text>
<polygon fill="#fb8072" stroke="transparent" points="406,-10 406,-30 426,-30 426,-10 406,-10"/>
<text text-anchor="start" x="429.7258" y="-15.4" font-family="sans-serif" font-size="14.00" fill="#000000"> &#160;Exports</text>
<g id="clust1" class="cluster">
<title>cluster_FormFieldsModule</title>
<polygon fill="none" stroke="#000000" stroke-dasharray="1,5" points="109,-70 109,-268 387,-268 387,-70 109,-70"/>
</g>
<g id="clust2" class="cluster">
<title>cluster_FormFieldsModule_declarations</title>
<polygon fill="none" stroke="#000000" points="253,-78 253,-130 379,-130 379,-78 253,-78"/>
</g>
<g id="clust4" class="cluster">
<title>cluster_FormFieldsModule_imports</title>
<polygon fill="none" stroke="#000000" points="117,-78 117,-130 245,-130 245,-78 117,-78"/>
</g>
<g id="clust5" class="cluster">
<title>cluster_FormFieldsModule_exports</title>
<polygon fill="none" stroke="#000000" points="183,-208 183,-260 313,-260 313,-208 183,-208"/>
</g>
<!-- InputComponent -->
<g id="node1" class="node">
<title>InputComponent</title>
<polygon fill="#ffffb3" stroke="#000000" points="371.3837,-122 260.6163,-122 260.6163,-86 371.3837,-86 371.3837,-122"/>
<text text-anchor="middle" x="316" y="-99.8" font-family="Times,serif" font-size="14.00" fill="#000000">InputComponent</text>
</g>
<!-- FormFieldsModule -->
<g id="node2" class="node">
<title>FormFieldsModule</title>
<polygon fill="#8dd3c7" stroke="#000000" points="310.1066,-187 307.1066,-191 286.1066,-191 283.1066,-187 185.8934,-187 185.8934,-151 310.1066,-151 310.1066,-187"/>
<text text-anchor="middle" x="248" y="-164.8" font-family="Times,serif" font-size="14.00" fill="#000000">FormFieldsModule</text>
</g>
<!-- InputComponent&#45;&gt;FormFieldsModule -->
<g id="edge1" class="edge">
<title>InputComponent&#45;&gt;FormFieldsModule</title>
<path fill="none" stroke="#000000" d="M285.3058,-122.1061C285.3058,-122.1061 285.3058,-140.991 285.3058,-140.991"/>
<polygon fill="#000000" stroke="#000000" points="281.8058,-140.9909 285.3058,-150.991 288.8058,-140.991 281.8058,-140.9909"/>
</g>
<!-- InputComponent  -->
<g id="node4" class="node">
<title>InputComponent </title>
<polygon fill="#fb8072" stroke="#000000" points="305.3842,-252 190.6158,-252 190.6158,-216 305.3842,-216 305.3842,-252"/>
<text text-anchor="middle" x="248" y="-229.8" font-family="Times,serif" font-size="14.00" fill="#000000">InputComponent </text>
</g>
<!-- FormFieldsModule&#45;&gt;InputComponent  -->
<g id="edge3" class="edge">
<title>FormFieldsModule&#45;&gt;InputComponent </title>
<path fill="none" stroke="#000000" stroke-dasharray="5,2" d="M248,-187.1061C248,-187.1061 248,-205.991 248,-205.991"/>
<polygon fill="#000000" stroke="#000000" points="244.5001,-205.9909 248,-215.991 251.5001,-205.991 244.5001,-205.9909"/>
</g>
<!-- CommonModule -->
<g id="node3" class="node">
<title>CommonModule</title>
<polygon fill="#8dd3c7" stroke="#000000" points="236.6681,-122 233.6681,-126 212.6681,-126 209.6681,-122 125.3319,-122 125.3319,-86 236.6681,-86 236.6681,-122"/>
<text text-anchor="middle" x="181" y="-99.8" font-family="Times,serif" font-size="14.00" fill="#000000">CommonModule</text>
</g>
<!-- CommonModule&#45;&gt;FormFieldsModule -->
<g id="edge2" class="edge">
<title>CommonModule&#45;&gt;FormFieldsModule</title>
<path fill="none" stroke="#000000" d="M211.3903,-122.1061C211.3903,-122.1061 211.3903,-140.991 211.3903,-140.991"/>
<polygon fill="#000000" stroke="#000000" points="207.8903,-140.9909 211.3903,-150.991 214.8903,-140.991 207.8903,-140.9909"/>
</g>
</g>
</svg>
